HIERARCHY
ROOT Head
{
	OFFSET 0 0 0
	CHANNELS 6 Xposition Yposition Zposition Zrotation Xrotation Yrotation
	JOINT Brows_Inner_Up
	{
		OFFSET -11.000 0 0
		CHANNELS 3 Zrotation Xrotation Yrotation
		End Site
		{
			OFFSET 0 0 10
		}
	}
	JOINT Brows_Inner_Down
	{
		OFFSET -9.000 0 0
		CHANNELS 3 Zrotation Xrotation Yrotation
		End Site
		{
			OFFSET 0 0 10
		}
	}
	JOINT Brows_Outer_Up
	{
		OFFSET -7.000 0 0
		CHANNELS 3 Zrotation Xrotation Yrotation
		End Site
		{
			OFFSET 0 0 10
		}
	}
	JOINT Brows_Outer_Down
	{
		OFFSET -5.000 0 0
		CHANNELS 3 Zrotation Xrotation Yrotation
		End Site
		{
			OFFSET 0 0 10
		}
	}
	JOINT Lip_Stretch
	{
		OFFSET -3.000 0 0
		CHANNELS 3 Zrotation Xrotation Yrotation
		End Site
		{
			OFFSET 0 0 10
		}
	}
	JOINT Lip_Kiss
	{
		OFFSET -1.000 0 0
		CHANNELS 3 Zrotation Xrotation Yrotation
		End Site
		{
			OFFSET 0 0 10
		}
	}
	JOINT Lip_Corners_Up
	{
		OFFSET 1.000 0 0
		CHANNELS 3 Zrotation Xrotation Yrotation
		End Site
		{
			OFFSET 0 0 10
		}
	}
	JOINT Lip_Corners_Down
	{
		OFFSET 3.000 0 0
		CHANNELS 3 Zrotation Xrotation Yrotation
		End Site
		{
			OFFSET 0 0 10
		}
	}
	JOINT Upper_Lip_Up
	{
		OFFSET 5.000 0 0
		CHANNELS 3 Zrotation Xrotation Yrotation
		End Site
		{
			OFFSET 0 0 10
		}
	}
	JOINT Upper_Lip_Down
	{
		OFFSET 7.000 0 0
		CHANNELS 3 Zrotation Xrotation Yrotation
		End Site
		{
			OFFSET 0 0 10
		}
	}
	JOINT Jaw_Open
	{
		OFFSET 9.000 0 0
		CHANNELS 3 Zrotation Xrotation Yrotation
		End Site
		{
			OFFSET 0 0 10
		}
	}
}
MOTION
Frames:	57
Frame Time:	0.0333333
0.577065 -2.039900 -98.549332 14.296789 3.669623 0.880412 0 -0.032091 0 0 6.563805 0 0 -0.000000 0 0 6.669859 0 0 0.000000 0 0 23.055899 0 0 -1.227838 0 0 2.477525 0 0 30.724609 0 0 0.000000 0 0 6.256670 0
0.577065 -2.039900 -98.549332 14.296789 3.669623 0.880412 0 -0.032091 0 0 6.563805 0 0 -0.000000 0 0 6.669859 0 0 0.000000 0 0 23.055899 0 0 -1.227838 0 0 2.477525 0 0 30.724609 0 0 0.000000 0 0 6.256670 0
0.899541 -1.983141 -98.362686 12.856691 3.226705 -0.974682 0 -0.018734 0 0 6.651889 0 0 -0.000000 0 0 -0.130711 0 0 0.000000 0 0 9.064352 0 0 -1.013095 0 0 14.418843 0 0 29.287737 0 0 0.000000 0 0 12.269695 0
0.910404 -1.945474 -98.272682 11.750580 3.153949 -1.032486 0 -0.005532 0 0 3.575180 0 0 -0.000000 0 0 1.999548 0 0 0.000000 0 0 13.302946 0 0 -0.391682 0 0 23.375187 0 0 27.863186 0 0 0.000000 0 0 14.093500 0
1.207947 -2.158325 -98.272087 7.917892 3.054914 -2.005254 0 9.932357 0 0 -1.319228 0 0 -0.000000 0 0 4.653819 0 0 0.000000 0 0 44.165276 0 0 -0.117088 0 0 5.529463 0 0 18.303770 0 0 0.000000 0 0 6.267198 0
1.214978 -2.212787 -98.228455 6.375736 2.592239 -1.459903 0 7.481366 0 0 -1.053373 0 0 -0.000000 0 0 2.833153 0 0 0.000000 0 0 37.057663 0 0 -0.061188 0 0 12.944627 0 0 18.246864 0 0 0.000000 0 0 7.690670 0
1.193113 -2.222798 -98.220695 6.189947 2.472182 -1.193723 0 6.447543 0 0 -0.680892 0 0 -0.000000 0 0 2.743572 0 0 0.000000 0 0 34.115166 0 0 -0.031359 0 0 14.794660 0 0 18.964338 0 0 0.000000 0 0 8.175985 0
1.260071 -2.152995 -98.253456 4.513564 2.487654 -0.484247 0 5.706341 0 0 -0.399495 0 0 -0.000000 0 0 4.554871 0 0 0.000000 0 0 33.579582 0 0 -0.015833 0 0 8.160303 0 0 34.916180 0 0 0.000000 0 0 8.010168 0
1.443138 -2.154865 -98.185226 3.547803 2.567559 -1.202091 0 5.886795 0 0 -0.221665 0 0 -0.000000 0 0 0.976244 0 0 0.000000 0 0 30.585266 0 0 -0.007899 0 0 6.718300 0 0 38.968636 0 0 0.000000 0 0 3.948861 0
1.536900 -2.028720 -98.221420 2.731495 3.239790 -1.069755 0 9.760910 0 0 -0.118601 0 0 -0.000000 0 0 2.008826 0 0 0.000000 0 0 31.139029 0 0 -0.003903 0 0 6.479293 0 0 44.030773 0 0 0.000000 0 0 1.220851 0
1.592464 -1.924365 -98.242989 1.931249 3.271002 -1.056370 0 3.261887 0 0 -0.061853 0 0 -0.000000 0 0 -0.523487 0 0 0.000000 0 0 35.048752 0 0 -0.001913 0 0 9.390955 0 0 40.506779 0 0 0.000000 0 0 2.011094 0
1.901411 -2.006329 -98.302650 0.494679 2.107033 -2.591115 0 9.114032 0 0 -0.031651 0 0 -0.000000 0 0 8.314551 0 0 0.000000 0 0 29.556644 0 0 -0.000932 0 0 3.745896 0 0 38.644779 0 0 0.000000 0 0 4.062671 0
1.924295 -1.838704 -98.294899 -1.340649 1.995515 -2.204824 0 2.933844 0 0 -0.007955 0 0 4.907411 0 0 -0.927119 0 0 0.000000 0 0 14.945722 0 0 -0.000217 0 0 8.429122 0 0 35.524323 0 0 0.000000 0 0 5.953291 0
1.861170 -1.815825 -98.284569 -1.366939 2.014455 -1.826766 0 2.496677 0 0 -0.003928 0 0 3.987608 0 0 -1.004637 0 0 0.000000 0 0 14.015532 0 0 -0.000104 0 0 9.672904 0 0 34.916294 0 0 0.000000 0 0 6.533156 0
2.317344 -1.850706 -98.356377 -4.692324 1.168485 -3.146558 0 1.922375 0 0 -0.000936 0 0 -0.863640 0 0 9.762370 0 0 0.000000 0 0 10.303309 0 0 1.052498 0 0 1.980396 0 0 34.420620 0 0 0.000000 0 0 11.514592 0
2.317344 -1.850706 -98.356377 -4.692324 1.168485 -3.146558 0 1.922375 0 0 -0.000936 0 0 -0.863640 0 0 9.762370 0 0 0.000000 0 0 10.303309 0 0 1.052498 0 0 1.980396 0 0 34.420620 0 0 0.000000 0 0 11.514592 0
2.474894 -1.813147 -98.292091 -5.434801 0.797563 -3.822379 0 -0.904635 0 0 4.179995 0 0 -0.764642 0 0 13.506946 0 0 0.000000 0 0 5.165401 0 0 -0.270660 0 0 16.143820 0 0 24.912018 0 0 0.000000 0 0 15.515905 0
2.470773 -1.909870 -98.312668 -7.115786 0.485034 -3.457891 0 -0.899919 0 0 4.974160 0 0 -0.307122 0 0 19.754595 0 0 0.000000 0 0 13.984105 0 0 -0.356243 0 0 25.185165 0 0 7.726508 0 0 0.000000 0 0 11.395454 0
2.474270 -2.019912 -98.293427 -7.958778 0.443650 -3.257399 0 1.923832 0 0 -0.078719 0 0 -0.172468 0 0 26.689011 0 0 0.000000 0 0 14.131758 0 0 -0.228132 0 0 12.442753 0 0 13.114941 0 0 0.000000 0 0 10.351759 0
2.503513 -1.990725 -98.299995 -8.244159 0.928185 -3.336753 0 0.108389 0 0 0.477455 0 0 -0.093029 0 0 26.780186 0 0 0.000000 0 0 18.947039 0 0 -0.133180 0 0 4.211056 0 0 19.179562 0 0 0.000000 0 0 11.723354 0
2.724536 -2.021006 -98.294327 -8.409481 1.153670 -4.467766 0 0.291143 0 0 -0.682138 0 0 -0.048801 0 0 26.374985 0 0 0.000000 0 0 19.418453 0 0 4.003945 0 0 -3.532463 0 0 23.619083 0 0 0.000000 0 0 11.692813 0
2.843567 -2.082958 -98.275757 -8.714178 1.101781 -4.954817 0 2.767350 0 0 -0.501415 0 0 -0.012692 0 0 25.669331 0 0 0.000000 0 0 13.185573 0 0 5.566858 0 0 -2.913436 0 0 29.416615 0 0 0.000000 0 0 11.241510 0
2.951890 -2.124151 -98.296043 -9.135042 0.932994 -5.293200 0 0.166830 0 0 0.166778 0 0 -0.006344 0 0 23.467445 0 0 0.000000 0 0 6.722063 0 0 7.205616 0 0 -1.805622 0 0 27.117163 0 0 0.000000 0 0 10.399167 0
3.287211 -2.170765 -98.270775 -10.351284 0.925436 -6.596343 0 -0.403000 0 0 3.048181 0 0 -0.001541 0 0 9.572339 0 0 0.000000 0 0 4.056799 0 0 11.896038 0 0 -0.565941 0 0 24.228971 0 0 0.000000 0 0 10.897890 0
3.371337 -2.226212 -98.268059 -12.159412 0.896624 -6.637325 0 -0.279626 0 0 6.381238 0 0 1.633672 0 0 -4.130593 0 0 11.323183 0 0 -2.071110 0 0 15.792314 0 0 -0.299742 0 0 29.697979 0 0 0.000000 0 0 8.912574 0
3.506048 -2.348091 -98.329666 -12.698135 0.525794 -7.305505 0 -0.170056 0 0 6.465748 0 0 13.250547 0 0 -5.655934 0 0 6.220409 0 0 -2.685501 0 0 6.651415 0 0 -0.155164 0 0 29.174269 0 0 0.000000 0 0 4.574675 0
3.506048 -2.348091 -98.329666 -12.698135 0.525794 -7.305505 0 -0.170056 0 0 6.465748 0 0 13.250547 0 0 -5.655934 0 0 6.220409 0 0 -2.685501 0 0 6.651415 0 0 -0.155164 0 0 29.174269 0 0 0.000000 0 0 4.574675 0
3.563597 -2.277466 -98.277328 -13.426037 0.758486 -7.396166 0 -0.052347 0 0 2.189197 0 0 10.934194 0 0 -2.683179 0 0 -1.035757 0 0 16.037979 0 0 -2.745064 0 0 0.886807 0 0 40.625496 0 0 0.000000 0 0 1.472723 0
3.546721 -2.276550 -98.277542 -13.301548 0.751376 -7.315614 0 -0.027586 0 0 2.258411 0 0 10.395344 0 0 -1.553447 0 0 -0.996391 0 0 19.593973 0 0 -2.155973 0 0 0.442796 0 0 40.387962 0 0 0.000000 0 0 0.990003 0
3.523285 -2.271761 -98.278252 -13.130547 0.753561 -7.231031 0 -0.014227 0 0 2.367784 0 0 9.920223 0 0 -0.854759 0 0 -0.687012 0 0 19.142174 0 0 -1.384501 0 0 0.353487 0 0 39.541252 0 0 0.000000 0 0 1.397529 0
3.488456 -2.263177 -98.279419 -12.877218 0.761833 -7.116710 0 -0.003615 0 0 2.506035 0 0 9.411305 0 0 -0.236150 0 0 -0.235767 0 0 17.092922 0 0 -0.448158 0 0 0.389688 0 0 38.356239 0 0 0.000000 0 0 2.197602 0
3.380059 -2.202957 -98.396301 -12.202589 1.682018 -6.265988 0 9.263659 0 0 -0.293620 0 0 -0.654513 0 0 -0.120456 0 0 -0.127841 0 0 18.689939 0 0 -0.239425 0 0 0.618173 0 0 39.788574 0 0 0.000000 0 0 1.219749 0
3.344598 -2.184234 -98.430946 -11.978283 1.954644 -6.004365 0 10.886023 0 0 -0.771730 0 0 -2.454965 0 0 -0.060590 0 0 -0.067314 0 0 18.719688 0 0 -0.124731 0 0 0.668758 0 0 39.932060 0 0 0.000000 0 0 1.131423 0
3.402299 -2.184662 -98.451973 -11.736835 2.339366 -5.971059 0 8.309420 0 0 -0.635099 0 0 0.252474 0 0 -0.030139 0 0 -0.034695 0 0 25.148403 0 0 0.426657 0 0 -0.027671 0 0 43.371510 0 0 0.000000 0 0 -0.473095 0
3.031498 -2.203333 -98.414108 -11.028204 2.825221 -2.988629 0 8.656612 0 0 -0.415314 0 0 -1.040696 0 0 1.426129 0 0 -0.017594 0 0 11.391321 0 0 0.053687 0 0 3.637869 0 0 39.662838 0 0 0.000000 0 0 3.072224 0
3.005398 -2.288483 -98.379173 -9.455744 2.881183 -2.014549 0 6.584491 0 0 -0.136556 0 0 -0.678236 0 0 6.857745 0 0 -0.004365 0 0 6.781652 0 0 -0.045144 0 0 2.595965 0 0 35.586624 0 0 0.000000 0 0 3.211290 0
3.033456 -2.287816 -98.378563 -9.319832 2.842721 -2.177317 0 6.260256 0 0 -0.073253 0 0 -0.410393 0 0 6.944868 0 0 -0.002145 0 0 8.527229 0 0 -0.032918 0 0 2.904474 0 0 35.278713 0 0 0.000000 0 0 2.970072 0
2.781655 -1.992239 -98.387764 -7.312082 4.806295 -0.286076 0 8.997151 0 0 -0.038275 0 0 -0.232011 0 0 11.670230 0 0 -0.001047 0 0 31.501276 0 0 -0.020485 0 0 10.816648 0 0 33.985626 0 0 0.000000 0 0 3.753730 0
2.626849 -1.975958 -98.250389 -3.208870 4.329888 1.800896 0 6.603205 0 0 -0.009902 0 0 -0.066152 0 0 16.062140 0 0 -0.000245 0 0 8.852729 0 0 -0.006445 0 0 6.104310 0 0 25.142920 0 0 0.000000 0 0 7.537327 0
2.626849 -1.975958 -98.250389 -3.208870 4.329888 1.800896 0 6.603205 0 0 -0.009902 0 0 -0.066152 0 0 16.062140 0 0 -0.000245 0 0 8.852729 0 0 -0.006445 0 0 6.104310 0 0 25.142920 0 0 0.000000 0 0 7.537327 0
2.484935 -1.965520 -98.218681 0.568637 3.310222 3.134013 0 3.944807 0 0 -0.002441 0 0 -0.017278 0 0 4.379456 0 0 0.202152 0 0 -0.829479 0 0 -0.001770 0 0 10.756953 0 0 16.574495 0 0 0.000000 0 0 7.504066 0
2.481708 -1.976569 -98.227570 0.860138 3.097226 3.097135 0 3.893324 0 0 -0.001196 0 0 -0.008648 0 0 2.327985 0 0 -0.052023 0 0 1.323445 0 0 -0.000901 0 0 11.788358 0 0 16.812199 0 0 0.000000 0 0 7.085844 0
2.108194 -2.001015 -98.271881 3.136339 2.377464 4.044134 0 7.802048 0 0 -0.000282 0 0 -0.002105 0 0 5.681698 0 0 -0.068446 0 0 -1.769088 0 0 -0.000225 0 0 2.184774 0 0 28.576405 0 0 0.000000 0 0 4.575922 0
2.037226 -1.966279 -98.255455 3.934999 2.282257 3.819435 0 11.035291 0 0 -0.000136 0 0 -0.001027 0 0 7.695094 0 0 -0.043831 0 0 -0.890428 0 0 -0.000111 0 0 1.399886 0 0 29.806358 0 0 0.000000 0 0 4.927050 0
1.971616 -1.882888 -98.192307 5.064441 1.706681 3.256048 0 8.039486 0 0 -0.000065 0 0 -0.000498 0 0 9.889083 0 0 -0.025588 0 0 1.245692 0 0 -0.000054 0 0 14.552527 0 0 26.888006 0 0 0.000000 0 0 11.133759 0
1.975132 -1.860686 -98.174797 5.127200 1.584115 3.011983 0 7.173645 0 0 -0.000031 0 0 -0.000240 0 0 10.237858 0 0 -0.014153 0 0 1.873857 0 0 -0.000026 0 0 17.161238 0 0 25.995689 0 0 0.000000 0 0 12.300213 0
1.741721 -1.783712 -98.135887 5.925145 1.443380 3.639595 0 -0.315180 0 0 -0.000015 0 0 -0.000115 0 0 10.907604 0 0 -0.007556 0 0 6.999804 0 0 -0.000013 0 0 27.017700 0 0 21.906025 0 0 0.000000 0 0 15.852586 0
1.524160 -1.859762 -98.135818 7.304131 1.131125 4.378059 0 -1.880389 0 0 4.620550 0 0 -0.000026 0 0 17.214352 0 0 -0.002011 0 0 13.769218 0 0 -0.000003 0 0 20.386951 0 0 18.250450 0 0 0.000000 0 0 15.368021 0
1.651590 -1.876479 -98.152626 8.356743 1.389035 3.402315 0 -0.471457 0 0 0.572771 0 0 -0.000012 0 0 25.414865 0 0 -0.001013 0 0 21.282589 0 0 -0.000001 0 0 14.270168 0 0 15.441707 0 0 0.000000 0 0 11.926532 0
1.508965 -1.946190 -98.157211 8.732574 1.235857 4.102454 0 -0.611530 0 0 1.444188 0 0 -0.000006 0 0 22.637033 0 0 -0.000505 0 0 24.018251 0 0 -0.000001 0 0 19.099812 0 0 15.935355 0 0 0.000000 0 0 11.819816 0
1.109363 -1.902178 -98.189651 9.453419 2.170769 6.027587 0 9.671988 0 0 -0.167875 0 0 -0.000003 0 0 27.671614 0 0 -0.000249 0 0 20.892426 0 0 -0.000000 0 0 22.199455 0 0 17.699602 0 0 0.000000 0 0 13.019562 0
0.715325 -1.937256 -98.154327 10.417307 2.793837 7.498117 0 4.983108 0 0 -0.365187 0 0 -0.000001 0 0 22.310823 0 0 -0.000059 0 0 15.486196 0 0 -0.000000 0 0 24.493481 0 0 21.727844 0 0 0.000000 0 0 9.760809 0
0.728174 -1.936029 -98.151947 10.339613 2.881276 7.386481 0 4.834519 0 0 -0.238853 0 0 -0.000000 0 0 21.247950 0 0 -0.000029 0 0 14.892295 0 0 -0.000000 0 0 23.021025 0 0 21.943316 0 0 0.000000 0 0 9.325315 0
0.628498 -2.016022 -98.151711 11.440624 2.830685 7.643844 0 10.358965 0 0 -0.141017 0 0 -0.000000 0 0 30.541664 0 0 -0.000014 0 0 16.214275 0 0 -0.000000 0 0 27.804678 0 0 27.291763 0 0 0.000000 0 0 9.362727 0
0.530657 -2.017220 -98.161819 12.483885 3.236526 7.153163 0 4.088031 0 0 -0.042137 0 0 -0.000000 0 0 17.000645 0 0 -0.000003 0 0 25.104681 0 0 -0.000000 0 0 20.927364 0 0 28.447432 0 0 0.000000 0 0 7.477550 0
0.538990 -2.016802 -98.157120 12.444613 3.259776 7.023603 0 2.841832 0 0 -0.022017 0 0 -0.000000 0 0 15.239182 0 0 -0.000002 0 0 24.633417 0 0 -0.000000 0 0 18.197626 0 0 27.639050 0 0 0.000000 0 0 7.405768 0
0.687200 -2.069974 -98.146988 13.801212 2.480235 5.151984 0 0.208688 0 0 -0.011283 0 0 -0.000000 0 0 20.600918 0 0 -0.000001 0 0 24.752829 0 0 -0.000000 0 0 19.128128 0 0 27.162075 0 0 0.000000 0 0 10.186333 0
